<svg width="170" height="32" viewBox="0 0 170 32" fill="none" xmlns="http://www.w3.org/2000/svg">
<path d="M8.27273 25H0.0227273V1.72727H8.34091C10.6818 1.72727 12.697 2.19318 14.3864 3.125C16.0758 4.04924 17.375 5.37879 18.2841 7.11364C19.2008 8.84848 19.6591 10.9242 19.6591 13.3409C19.6591 15.7652 19.2008 17.8485 18.2841 19.5909C17.375 21.3333 16.0682 22.6705 14.3636 23.6023C12.6667 24.5341 10.6364 25 8.27273 25ZM4.94318 20.7841H8.06818C9.52273 20.7841 10.7462 20.5265 11.7386 20.0114C12.7386 19.4886 13.4886 18.6818 13.9886 17.5909C14.4962 16.4924 14.75 15.0758 14.75 13.3409C14.75 11.6212 14.4962 10.2159 13.9886 9.125C13.4886 8.03409 12.7424 7.23106 11.75 6.71591C10.7576 6.20076 9.53409 5.94318 8.07955 5.94318H4.94318V20.7841ZM28.1903 25.3295C27.0767 25.3295 26.0843 25.1364 25.2131 24.75C24.3419 24.3561 23.6525 23.7765 23.1449 23.0114C22.6449 22.2386 22.3949 21.2765 22.3949 20.125C22.3949 19.1553 22.5729 18.3409 22.929 17.6818C23.285 17.0227 23.7699 16.4924 24.3835 16.0909C24.9972 15.6894 25.6941 15.3864 26.4744 15.1818C27.2623 14.9773 28.0881 14.8333 28.9517 14.75C29.9669 14.6439 30.785 14.5455 31.4062 14.4545C32.0275 14.3561 32.4782 14.2121 32.7585 14.0227C33.0388 13.8333 33.179 13.553 33.179 13.1818V13.1136C33.179 12.3939 32.9517 11.8371 32.4972 11.4432C32.0502 11.0492 31.4138 10.8523 30.5881 10.8523C29.7169 10.8523 29.0237 11.0455 28.5085 11.4318C27.9934 11.8106 27.6525 12.2879 27.4858 12.8636L23.0085 12.5C23.2358 11.4394 23.6828 10.5227 24.3494 9.75C25.0161 8.9697 25.8759 8.37121 26.929 7.95454C27.9896 7.5303 29.2169 7.31818 30.6108 7.31818C31.5805 7.31818 32.5085 7.43182 33.3949 7.65909C34.2888 7.88636 35.0805 8.23864 35.7699 8.71591C36.4669 9.19318 37.0161 9.80682 37.4176 10.5568C37.8191 11.2992 38.0199 12.1894 38.0199 13.2273V25H33.429V22.5795H33.2926C33.0123 23.125 32.6373 23.6061 32.1676 24.0227C31.6979 24.4318 31.1335 24.7538 30.4744 24.9886C29.8153 25.2159 29.054 25.3295 28.1903 25.3295ZM29.5767 21.9886C30.2888 21.9886 30.9176 21.8485 31.4631 21.5682C32.0085 21.2803 32.4366 20.8939 32.7472 20.4091C33.0578 19.9242 33.2131 19.375 33.2131 18.7614V16.9091C33.0616 17.0076 32.8532 17.0985 32.5881 17.1818C32.3305 17.2576 32.0388 17.3295 31.7131 17.3977C31.3873 17.4583 31.0616 17.5152 30.7358 17.5682C30.41 17.6136 30.1146 17.6553 29.8494 17.6932C29.2813 17.7765 28.785 17.9091 28.3608 18.0909C27.9366 18.2727 27.607 18.5189 27.3722 18.8295C27.1373 19.1326 27.0199 19.5114 27.0199 19.9659C27.0199 20.625 27.2585 21.1288 27.7358 21.4773C28.2206 21.8182 28.8343 21.9886 29.5767 21.9886ZM41.7756 25V7.54545H46.6165V25H41.7756ZM44.2074 5.29545C43.4877 5.29545 42.8703 5.05682 42.3551 4.57954C41.8475 4.0947 41.5938 3.51515 41.5938 2.84091C41.5938 2.17424 41.8475 1.60227 42.3551 1.125C42.8703 0.640151 43.4877 0.397726 44.2074 0.397726C44.9271 0.397726 45.5407 0.640151 46.0483 1.125C46.5634 1.60227 46.821 2.17424 46.821 2.84091C46.821 3.51515 46.5634 4.0947 46.0483 4.57954C45.5407 5.05682 44.9271 5.29545 44.2074 5.29545ZM55.3352 1.72727V25H50.4943V1.72727H55.3352ZM62.2017 31.5455C61.5881 31.5455 61.0123 31.4962 60.4744 31.3977C59.9441 31.3068 59.5047 31.1894 59.1562 31.0455L60.2472 27.4318C60.8153 27.6061 61.3267 27.7008 61.7812 27.7159C62.2434 27.7311 62.6411 27.625 62.9744 27.3977C63.3153 27.1705 63.5919 26.7841 63.804 26.2386L64.0881 25.5L57.8267 7.54545H62.9176L66.5312 20.3636H66.7131L70.3608 7.54545H75.4858L68.7017 26.8864C68.3759 27.8258 67.9328 28.6439 67.3722 29.3409C66.8191 30.0455 66.1184 30.5871 65.2699 30.9659C64.4214 31.3523 63.3987 31.5455 62.2017 31.5455Z" fill="#BB86FC"/>
<path d="M86.8381 16.9091H91.0199L93.1222 19.6136L95.1903 22.0227L99.0881 26.9091H94.4972L91.8153 23.6136L90.4403 21.6591L86.8381 16.9091ZM99.4403 13.3636C99.4403 15.9015 98.9593 18.0606 97.9972 19.8409C97.0426 21.6212 95.7396 22.9811 94.0881 23.9205C92.4441 24.8523 90.5956 25.3182 88.5426 25.3182C86.4744 25.3182 84.6184 24.8485 82.9744 23.9091C81.3305 22.9697 80.0313 21.6098 79.0767 19.8295C78.1222 18.0492 77.6449 15.8939 77.6449 13.3636C77.6449 10.8258 78.1222 8.66667 79.0767 6.88636C80.0313 5.10606 81.3305 3.75 82.9744 2.81818C84.6184 1.87879 86.4744 1.40909 88.5426 1.40909C90.5956 1.40909 92.4441 1.87879 94.0881 2.81818C95.7396 3.75 97.0426 5.10606 97.9972 6.88636C98.9593 8.66667 99.4403 10.8258 99.4403 13.3636ZM94.4517 13.3636C94.4517 11.7197 94.2055 10.3333 93.7131 9.20455C93.2282 8.07576 92.5426 7.2197 91.6562 6.63636C90.7699 6.05303 89.732 5.76136 88.5426 5.76136C87.3532 5.76136 86.3153 6.05303 85.429 6.63636C84.5426 7.2197 83.8532 8.07576 83.3608 9.20455C82.8759 10.3333 82.6335 11.7197 82.6335 13.3636C82.6335 15.0076 82.8759 16.3939 83.3608 17.5227C83.8532 18.6515 84.5426 19.5076 85.429 20.0909C86.3153 20.6742 87.3532 20.9659 88.5426 20.9659C89.732 20.9659 90.7699 20.6742 91.6562 20.0909C92.5426 19.5076 93.2282 18.6515 93.7131 17.5227C94.2055 16.3939 94.4517 15.0076 94.4517 13.3636ZM114.188 17.5682V7.54545H119.028V25H114.381V21.8295H114.199C113.805 22.8523 113.15 23.6742 112.233 24.2955C111.324 24.9167 110.214 25.2273 108.903 25.2273C107.737 25.2273 106.71 24.9621 105.824 24.4318C104.938 23.9015 104.244 23.1477 103.744 22.1705C103.252 21.1932 103.002 20.0227 102.994 18.6591V7.54545H107.835V17.7955C107.843 18.8258 108.119 19.6402 108.665 20.2386C109.21 20.8371 109.941 21.1364 110.858 21.1364C111.441 21.1364 111.987 21.0038 112.494 20.7386C113.002 20.4659 113.411 20.0644 113.722 19.5341C114.04 19.0038 114.195 18.3485 114.188 17.5682ZM130.855 25.3409C129.06 25.3409 127.514 24.9773 126.219 24.25C124.931 23.5152 123.938 22.4773 123.241 21.1364C122.545 19.7879 122.196 18.1932 122.196 16.3523C122.196 14.5568 122.545 12.9811 123.241 11.625C123.938 10.2689 124.92 9.21212 126.185 8.45454C127.457 7.69697 128.95 7.31818 130.662 7.31818C131.813 7.31818 132.885 7.50379 133.878 7.875C134.878 8.23864 135.749 8.78788 136.491 9.52273C137.241 10.2576 137.825 11.1818 138.241 12.2955C138.658 13.4015 138.866 14.697 138.866 16.1818V17.5114H124.128V14.5114H134.31C134.31 13.8144 134.158 13.197 133.855 12.6591C133.552 12.1212 133.132 11.7008 132.594 11.3977C132.063 11.0871 131.446 10.9318 130.741 10.9318C130.007 10.9318 129.355 11.1023 128.787 11.4432C128.226 11.7765 127.787 12.2273 127.469 12.7955C127.151 13.3561 126.988 13.9811 126.98 14.6705V17.5227C126.98 18.3864 127.139 19.1326 127.457 19.7614C127.783 20.3902 128.241 20.875 128.832 21.2159C129.423 21.5568 130.124 21.7273 130.935 21.7273C131.473 21.7273 131.965 21.6515 132.412 21.5C132.859 21.3485 133.241 21.1212 133.56 20.8182C133.878 20.5152 134.12 20.1439 134.287 19.7045L138.764 20C138.537 21.0758 138.071 22.0152 137.366 22.8182C136.67 23.6136 135.768 24.2348 134.662 24.6818C133.563 25.1212 132.295 25.3409 130.855 25.3409ZM156.548 12.5227L152.116 12.7955C152.041 12.4167 151.878 12.0758 151.628 11.7727C151.378 11.4621 151.048 11.2159 150.639 11.0341C150.238 10.8447 149.757 10.75 149.196 10.75C148.446 10.75 147.813 10.9091 147.298 11.2273C146.783 11.5379 146.526 11.9545 146.526 12.4773C146.526 12.8939 146.692 13.2462 147.026 13.5341C147.359 13.822 147.931 14.053 148.741 14.2273L151.901 14.8636C153.598 15.2121 154.863 15.7727 155.696 16.5455C156.529 17.3182 156.946 18.3333 156.946 19.5909C156.946 20.7348 156.609 21.7386 155.935 22.6023C155.268 23.4659 154.351 24.1402 153.185 24.625C152.026 25.1023 150.688 25.3409 149.173 25.3409C146.863 25.3409 145.022 24.8598 143.651 23.8977C142.287 22.928 141.488 21.6098 141.253 19.9432L146.014 19.6932C146.158 20.3977 146.507 20.9356 147.06 21.3068C147.613 21.6705 148.321 21.8523 149.185 21.8523C150.033 21.8523 150.715 21.6894 151.23 21.3636C151.753 21.0303 152.018 20.6023 152.026 20.0795C152.018 19.6402 151.832 19.2803 151.469 19C151.105 18.7121 150.545 18.4924 149.787 18.3409L146.764 17.7386C145.06 17.3977 143.791 16.8068 142.957 15.9659C142.132 15.125 141.719 14.053 141.719 12.75C141.719 11.6288 142.022 10.6629 142.628 9.85227C143.241 9.04167 144.101 8.41667 145.207 7.97727C146.321 7.53788 147.624 7.31818 149.116 7.31818C151.321 7.31818 153.056 7.78409 154.321 8.71591C155.594 9.64773 156.336 10.9167 156.548 12.5227ZM169.278 7.54545V11.1818H158.767V7.54545H169.278ZM161.153 3.36364H165.994V19.6364C165.994 20.0833 166.063 20.4318 166.199 20.6818C166.335 20.9242 166.525 21.0947 166.767 21.1932C167.017 21.2917 167.305 21.3409 167.631 21.3409C167.858 21.3409 168.085 21.322 168.312 21.2841C168.54 21.2386 168.714 21.2045 168.835 21.1818L169.597 24.7841C169.354 24.8598 169.013 24.947 168.574 25.0455C168.134 25.1515 167.6 25.2159 166.972 25.2386C165.805 25.2841 164.782 25.1288 163.903 24.7727C163.032 24.4167 162.354 23.8636 161.869 23.1136C161.384 22.3636 161.146 21.4167 161.153 20.2727V3.36364Z" fill="#03DAC6"/>
</svg>
