<svg width="19" height="54" viewBox="0 0 19 54" fill="none" xmlns="http://www.w3.org/2000/svg">
<path d="M7.6 3.85714C7.6 4.88012 7.19964 5.8612 6.48701 6.58456C5.77437 7.30791 4.80782 7.71429 3.8 7.71429C2.79218 7.71429 1.82563 7.30791 1.113 6.58456C0.400357 5.8612 0 4.88012 0 3.85714C0 2.83416 0.400357 1.85309 1.113 1.12973C1.82563 0.406376 2.79218 0 3.8 0C4.80782 0 5.77437 0.406376 6.48701 1.12973C7.19964 1.85309 7.6 2.83416 7.6 3.85714ZM19 3.85714C19 4.88012 18.5996 5.8612 17.887 6.58456C17.1744 7.30791 16.2078 7.71429 15.2 7.71429C14.1922 7.71429 13.2256 7.30791 12.513 6.58456C11.8004 5.8612 11.4 4.88012 11.4 3.85714C11.4 2.83416 11.8004 1.85309 12.513 1.12973C13.2256 0.406376 14.1922 0 15.2 0C16.2078 0 17.1744 0.406376 17.887 1.12973C18.5996 1.85309 19 2.83416 19 3.85714ZM7.6 15.4286C7.6 16.4515 7.19964 17.4326 6.48701 18.156C5.77437 18.8793 4.80782 19.2857 3.8 19.2857C2.79218 19.2857 1.82563 18.8793 1.113 18.156C0.400357 17.4326 0 16.4515 0 15.4286C0 14.4056 0.400357 13.4245 1.113 12.7012C1.82563 11.9778 2.79218 11.5714 3.8 11.5714C4.80782 11.5714 5.77437 11.9778 6.48701 12.7012C7.19964 13.4245 7.6 14.4056 7.6 15.4286ZM19 15.4286C19 16.4515 18.5996 17.4326 17.887 18.156C17.1744 18.8793 16.2078 19.2857 15.2 19.2857C14.1922 19.2857 13.2256 18.8793 12.513 18.156C11.8004 17.4326 11.4 16.4515 11.4 15.4286C11.4 14.4056 11.8004 13.4245 12.513 12.7012C13.2256 11.9778 14.1922 11.5714 15.2 11.5714C16.2078 11.5714 17.1744 11.9778 17.887 12.7012C18.5996 13.4245 19 14.4056 19 15.4286ZM7.6 27C7.6 28.023 7.19964 29.0041 6.48701 29.7274C5.77437 30.4508 4.80782 30.8571 3.8 30.8571C2.79218 30.8571 1.82563 30.4508 1.113 29.7274C0.400357 29.0041 0 28.023 0 27C0 25.977 0.400357 24.9959 1.113 24.2726C1.82563 23.5492 2.79218 23.1429 3.8 23.1429C4.80782 23.1429 5.77437 23.5492 6.48701 24.2726C7.19964 24.9959 7.6 25.977 7.6 27ZM19 27C19 28.023 18.5996 29.0041 17.887 29.7274C17.1744 30.4508 16.2078 30.8571 15.2 30.8571C14.1922 30.8571 13.2256 30.4508 12.513 29.7274C11.8004 29.0041 11.4 28.023 11.4 27C11.4 25.977 11.8004 24.9959 12.513 24.2726C13.2256 23.5492 14.1922 23.1429 15.2 23.1429C16.2078 23.1429 17.1744 23.5492 17.887 24.2726C18.5996 24.9959 19 25.977 19 27ZM7.6 38.5714C7.6 39.5944 7.19964 40.5755 6.48701 41.2988C5.77437 42.0222 4.80782 42.4286 3.8 42.4286C2.79218 42.4286 1.82563 42.0222 1.113 41.2988C0.400357 40.5755 0 39.5944 0 38.5714C0 37.5485 0.400357 36.5674 1.113 35.844C1.82563 35.1207 2.79218 34.7143 3.8 34.7143C4.80782 34.7143 5.77437 35.1207 6.48701 35.844C7.19964 36.5674 7.6 37.5485 7.6 38.5714ZM19 38.5714C19 39.5944 18.5996 40.5755 17.887 41.2988C17.1744 42.0222 16.2078 42.4286 15.2 42.4286C14.1922 42.4286 13.2256 42.0222 12.513 41.2988C11.8004 40.5755 11.4 39.5944 11.4 38.5714C11.4 37.5485 11.8004 36.5674 12.513 35.844C13.2256 35.1207 14.1922 34.7143 15.2 34.7143C16.2078 34.7143 17.1744 35.1207 17.887 35.844C18.5996 36.5674 19 37.5485 19 38.5714ZM7.6 50.1429C7.6 51.1658 7.19964 52.1469 6.48701 52.8703C5.77437 53.5936 4.80782 54 3.8 54C2.79218 54 1.82563 53.5936 1.113 52.8703C0.400357 52.1469 0 51.1658 0 50.1429C0 49.1199 0.400357 48.1388 1.113 47.4154C1.82563 46.6921 2.79218 46.2857 3.8 46.2857C4.80782 46.2857 5.77437 46.6921 6.48701 47.4154C7.19964 48.1388 7.6 49.1199 7.6 50.1429ZM19 50.1429C19 51.1658 18.5996 52.1469 17.887 52.8703C17.1744 53.5936 16.2078 54 15.2 54C14.1922 54 13.2256 53.5936 12.513 52.8703C11.8004 52.1469 11.4 51.1658 11.4 50.1429C11.4 49.1199 11.8004 48.1388 12.513 47.4154C13.2256 46.6921 14.1922 46.2857 15.2 46.2857C16.2078 46.2857 17.1744 46.6921 17.887 47.4154C18.5996 48.1388 19 49.1199 19 50.1429Z" fill="#F9A825" fill-opacity="0.25"/>
</svg>
